<?xml version="1.0" encoding="UTF-8" standalone="no"?><!DOCTYPE svg PUBLIC "-//W3C//DTD SVG 1.1//EN" "http://www.w3.org/Graphics/SVG/1.1/DTD/svg11.dtd"><!-- Generated by graphviz version 2.40.1 (20161225.0304)
 --><!-- Title: dag Pages: 1 --><svg xmlns="http://www.w3.org/2000/svg" xmlns:xlink="http://www.w3.org/1999/xlink" width="483pt" height="716pt" viewBox="0.00 0.00 483.48 716.40">
<g id="graph0" class="graph" transform="scale(1 1) rotate(0) translate(4 712.4)">
<title>dag</title>
<polygon fill="#ffffff" stroke="transparent" points="-4,4 -4,-712.4 479.4773,-712.4 479.4773,4 -4,4"/>
<!-- p0 -->
<g id="node1" class="node">
<title>p0</title>
<ellipse fill="#000000" stroke="#000000" cx="88.8213" cy="-439.4" rx="3.6" ry="3.6"/>
<text text-anchor="middle" x="46.5372" y="-447.2" font-family="Times,serif" font-size="14.00" fill="#000000">Channel.from</text>
</g>
<!-- p1 -->
<g id="node2" class="node">
<title>p1</title>
<ellipse fill="none" stroke="#000000" cx="88.8213" cy="-366.4" rx="88.6429" ry="18"/>
<text text-anchor="middle" x="88.8213" y="-362.2" font-family="Times,serif" font-size="14.00" fill="#000000">downloadFastqFiles</text>
</g>
<!-- p0&#45;&gt;p1 -->
<g id="edge1" class="edge">
<title>p0-&gt;p1</title>
<path fill="none" stroke="#000000" d="M88.8213,-435.4752C88.8213,-427.8234 88.8213,-410.3037 88.8213,-394.8242"/>
<polygon fill="#000000" stroke="#000000" points="92.3214,-394.5798 88.8213,-384.5798 85.3214,-394.5799 92.3214,-394.5798"/>
</g>
<!-- p9 -->
<g id="node3" class="node">
<title>p9</title>
<ellipse fill="none" stroke="#000000" cx="187.8213" cy="-277.6" rx="67.7972" ry="18"/>
<text text-anchor="middle" x="187.8213" y="-273.4" font-family="Times,serif" font-size="14.00" fill="#000000">mappingFastQ</text>
</g>
<!-- p1&#45;&gt;p9 -->
<g id="edge2" class="edge">
<title>p1-&gt;p9</title>
<path fill="none" stroke="#000000" d="M108.8554,-348.43C123.8103,-335.0159 144.4069,-316.5414 160.8152,-301.8236"/>
<polygon fill="#000000" stroke="#000000" points="163.3835,-304.2216 168.4907,-294.9389 158.7095,-299.0107 163.3835,-304.2216"/>
</g>
<!-- p10 -->
<g id="node11" class="node">
<title>p10</title>
<ellipse fill="none" stroke="#000000" cx="187.8213" cy="-204.6" rx="50.9638" ry="18"/>
<text text-anchor="middle" x="187.8213" y="-200.4" font-family="Times,serif" font-size="14.00" fill="#000000">indexBam</text>
</g>
<!-- p9&#45;&gt;p10 -->
<g id="edge10" class="edge">
<title>p9-&gt;p10</title>
<path fill="none" stroke="#000000" d="M187.8213,-259.5551C187.8213,-251.4828 187.8213,-241.7764 187.8213,-232.7817"/>
<polygon fill="#000000" stroke="#000000" points="191.3214,-232.6903 187.8213,-222.6904 184.3214,-232.6904 191.3214,-232.6903"/>
</g>
<!-- p12 -->
<g id="node13" class="node">
<title>p12</title>
<ellipse fill="none" stroke="#000000" cx="264.8213" cy="-204.6" rx="3.5" ry="3.5"/>
<text text-anchor="middle" x="277.6558" y="-212.3" font-family="Times,serif" font-size="14.00" fill="#000000">toList</text>
</g>
<!-- p9&#45;&gt;p12 -->
<g id="edge12" class="edge">
<title>p9-&gt;p12</title>
<path fill="none" stroke="#000000" d="M207.3349,-260.3591C219.2323,-249.6894 234.6346,-235.5918 247.8213,-222.6 250.3474,-220.1112 253.0109,-217.3571 255.4609,-214.7672"/>
<polygon fill="#000000" stroke="#000000" points="258.2261,-216.9326 262.4572,-207.2193 253.0923,-212.174 258.2261,-216.9326"/>
</g>
<!-- p2 -->
<g id="node4" class="node">
<title>p2</title>
<ellipse fill="#000000" stroke="#000000" cx="104.8213" cy="-688" rx="3.6" ry="3.6"/>
<text text-anchor="middle" x="62.5372" y="-695.8" font-family="Times,serif" font-size="14.00" fill="#000000">Channel.from</text>
</g>
<!-- p3 -->
<g id="node5" class="node">
<title>p3</title>
<ellipse fill="none" stroke="#000000" cx="104.8213" cy="-629.4" rx="81.6693" ry="18"/>
<text text-anchor="middle" x="104.8213" y="-625.2" font-family="Times,serif" font-size="14.00" fill="#000000">downloadGenome</text>
</g>
<!-- p2&#45;&gt;p3 -->
<g id="edge3" class="edge">
<title>p2-&gt;p3</title>
<path fill="none" stroke="#000000" d="M104.8213,-684.1551C104.8213,-678.6551 104.8213,-668.0505 104.8213,-657.6272"/>
<polygon fill="#000000" stroke="#000000" points="108.3214,-657.4601 104.8213,-647.4601 101.3214,-657.4601 108.3214,-657.4601"/>
</g>
<!-- p4 -->
<g id="node6" class="node">
<title>p4</title>
<ellipse fill="none" stroke="#000000" cx="104.8213" cy="-570.9" rx="3.5" ry="3.5"/>
<text text-anchor="middle" x="84.9868" y="-578.6" font-family="Times,serif" font-size="14.00" fill="#000000">toList</text>
</g>
<!-- p3&#45;&gt;p4 -->
<g id="edge4" class="edge">
<title>p3-&gt;p4</title>
<path fill="none" stroke="#000000" d="M104.8213,-611.2109C104.8213,-602.7587 104.8213,-592.8613 104.8213,-584.989"/>
<polygon fill="#000000" stroke="#000000" points="108.3214,-584.7836 104.8213,-574.7837 101.3214,-584.7837 108.3214,-584.7836"/>
</g>
<!-- p5 -->
<g id="node7" class="node">
<title>p5</title>
<ellipse fill="none" stroke="#000000" cx="104.8213" cy="-512.4" rx="89.1472" ry="18"/>
<text text-anchor="middle" x="104.8213" y="-508.2" font-family="Times,serif" font-size="14.00" fill="#000000">concatenateGenome</text>
</g>
<!-- p4&#45;&gt;p5 -->
<g id="edge5" class="edge">
<title>p4-&gt;p5</title>
<path fill="none" stroke="#000000" d="M104.8213,-567.0617C104.8213,-561.5711 104.8213,-550.9846 104.8213,-540.579"/>
<polygon fill="#000000" stroke="#000000" points="108.3214,-540.4292 104.8213,-530.4293 101.3214,-540.4293 108.3214,-540.4292"/>
</g>
<!-- p7 -->
<g id="node8" class="node">
<title>p7</title>
<ellipse fill="none" stroke="#000000" cx="198.8213" cy="-439.4" rx="63.689" ry="18"/>
<text text-anchor="middle" x="198.8213" y="-435.2" font-family="Times,serif" font-size="14.00" fill="#000000">genomeIndex</text>
</g>
<!-- p5&#45;&gt;p7 -->
<g id="edge6" class="edge">
<title>p5-&gt;p7</title>
<path fill="none" stroke="#000000" d="M127.576,-494.7287C139.995,-485.0842 155.524,-473.0245 168.9114,-462.6279"/>
<polygon fill="#000000" stroke="#000000" points="171.172,-465.3038 176.9233,-456.4059 166.8785,-459.7752 171.172,-465.3038"/>
</g>
<!-- p8 -->
<g id="node10" class="node">
<title>p8</title>
<ellipse fill="none" stroke="#000000" cx="198.8213" cy="-366.4" rx="3.5" ry="3.5"/>
<text text-anchor="middle" x="213.9791" y="-374.1" font-family="Times,serif" font-size="14.00" fill="#000000">collect</text>
</g>
<!-- p7&#45;&gt;p8 -->
<g id="edge8" class="edge">
<title>p7-&gt;p8</title>
<path fill="none" stroke="#000000" d="M198.8213,-421.3551C198.8213,-408.7044 198.8213,-392.0401 198.8213,-380.392"/>
<polygon fill="#000000" stroke="#000000" points="202.3214,-380.1489 198.8213,-370.1489 195.3214,-380.1489 202.3214,-380.1489"/>
</g>
<!-- p6 -->
<g id="node9" class="node">
<title>p6</title>
<ellipse fill="none" stroke="#000000" cx="300.8213" cy="-512.4" rx="88.6294" ry="18"/>
<text text-anchor="middle" x="300.8213" y="-508.2" font-family="Times,serif" font-size="14.00" fill="#000000">genomeAnnotations</text>
</g>
<!-- p6&#45;&gt;p7 -->
<g id="edge7" class="edge">
<title>p6-&gt;p7</title>
<path fill="none" stroke="#000000" d="M276.3897,-494.9147C262.6933,-485.1123 245.4499,-472.7715 230.7011,-462.216"/>
<polygon fill="#000000" stroke="#000000" points="232.5201,-459.2138 222.3512,-456.2401 228.4462,-464.9062 232.5201,-459.2138"/>
</g>
<!-- p13 -->
<g id="node14" class="node">
<title>p13</title>
<ellipse fill="none" stroke="#000000" cx="285.8213" cy="-131.6" rx="44.6665" ry="18"/>
<text text-anchor="middle" x="285.8213" y="-127.4" font-family="Times,serif" font-size="14.00" fill="#000000">counting</text>
</g>
<!-- p6&#45;&gt;p13 -->
<g id="edge14" class="edge">
<title>p6-&gt;p13</title>
<path fill="none" stroke="#000000" d="M300.8213,-494.0997C300.8213,-479.3349 300.8213,-458.0302 300.8213,-439.4 300.8213,-439.4 300.8213,-439.4 300.8213,-204.6 300.8213,-189.4439 297.6806,-172.8733 294.2734,-159.3561"/>
<polygon fill="#000000" stroke="#000000" points="297.649,-158.4308 291.6636,-149.6887 290.8909,-160.2553 297.649,-158.4308"/>
<text text-anchor="middle" x="346.6944" y="-317.8" font-family="Times,serif" font-size="14.00" fill="#000000">annotedGenome</text>
</g>
<!-- p8&#45;&gt;p9 -->
<g id="edge9" class="edge">
<title>p8-&gt;p9</title>
<path fill="none" stroke="#000000" d="M197.5684,-363.0887C195.268,-356.8197 190.4411,-342.7395 188.6319,-330.4 187.4798,-322.5425 187.0145,-313.9569 186.9032,-306.0358"/>
<polygon fill="#000000" stroke="#000000" points="190.404,-305.7893 186.9396,-295.7769 183.4041,-305.7644 190.404,-305.7893"/>
<text text-anchor="middle" x="232.916" y="-317.8" font-family="Times,serif" font-size="14.00" fill="#000000">pathGenomeDir</text>
</g>
<!-- p11 -->
<g id="node12" class="node">
<title>p11</title>
<ellipse fill="#000000" stroke="#000000" cx="187.8213" cy="-131.6" rx="1.8" ry="1.8"/>
</g>
<!-- p10&#45;&gt;p11 -->
<g id="edge11" class="edge">
<title>p10-&gt;p11</title>
<path fill="none" stroke="#000000" d="M187.8213,-186.5551C187.8213,-173.2025 187.8213,-155.3784 187.8213,-143.701"/>
<polygon fill="#000000" stroke="#000000" points="191.3214,-143.4525 187.8213,-133.4525 184.3214,-143.4525 191.3214,-143.4525"/>
</g>
<!-- p12&#45;&gt;p13 -->
<g id="edge13" class="edge">
<title>p12-&gt;p13</title>
<path fill="none" stroke="#000000" d="M265.8341,-201.0791C267.9848,-193.6029 273.1839,-175.5297 277.7404,-159.6907"/>
<polygon fill="#000000" stroke="#000000" points="281.2022,-160.3166 280.6033,-149.7387 274.475,-158.3814 281.2022,-160.3166"/>
</g>
<!-- p16 -->
<g id="node15" class="node">
<title>p16</title>
<ellipse fill="none" stroke="#000000" cx="351.8213" cy="-58.6" rx="58.5444" ry="18"/>
<text text-anchor="middle" x="351.8213" y="-54.4" font-family="Times,serif" font-size="14.00" fill="#000000">diffAnalysis</text>
</g>
<!-- p13&#45;&gt;p16 -->
<g id="edge15" class="edge">
<title>p13-&gt;p16</title>
<path fill="none" stroke="#000000" d="M301.1289,-114.6688C309.4435,-105.4724 319.8855,-93.9229 329.1284,-83.6997"/>
<polygon fill="#000000" stroke="#000000" points="331.7973,-85.9665 335.9076,-76.2015 326.6049,-81.272 331.7973,-85.9665"/>
</g>
<!-- p18 -->
<g id="node18" class="node">
<title>p18</title>
<ellipse fill="#000000" stroke="#000000" cx="339.8213" cy="-1.8" rx="1.8" ry="1.8"/>
</g>
<!-- p16&#45;&gt;p18 -->
<g id="edge18" class="edge">
<title>p16-&gt;p18</title>
<path fill="none" stroke="#000000" d="M348.0244,-40.6281C346.1593,-31.8 343.9644,-21.4107 342.3145,-13.6013"/>
<polygon fill="#000000" stroke="#000000" points="345.6985,-12.686 340.2069,-3.6255 338.8497,-14.133 345.6985,-12.686"/>
</g>
<!-- p17 -->
<g id="node19" class="node">
<title>p17</title>
<ellipse fill="#000000" stroke="#000000" cx="364.8213" cy="-1.8" rx="1.8" ry="1.8"/>
</g>
<!-- p16&#45;&gt;p17 -->
<g id="edge19" class="edge">
<title>p16-&gt;p17</title>
<path fill="none" stroke="#000000" d="M355.9345,-40.6281C357.9551,-31.8 360.3329,-21.4107 362.1203,-13.6013"/>
<polygon fill="#000000" stroke="#000000" points="365.5841,-14.1543 364.4035,-3.6255 358.7606,-12.5926 365.5841,-14.1543"/>
</g>
<!-- p14 -->
<g id="node16" class="node">
<title>p14</title>
<ellipse fill="#000000" stroke="#000000" cx="351.8213" cy="-131.6" rx="3.6" ry="3.6"/>
<text text-anchor="middle" x="399.3493" y="-139.4" font-family="Times,serif" font-size="14.00" fill="#000000">Channel.fromPath</text>
</g>
<!-- p14&#45;&gt;p16 -->
<g id="edge16" class="edge">
<title>p14-&gt;p16</title>
<path fill="none" stroke="#000000" d="M351.8213,-127.6752C351.8213,-120.0234 351.8213,-102.5037 351.8213,-87.0242"/>
<polygon fill="#000000" stroke="#000000" points="355.3214,-86.7798 351.8213,-76.7798 348.3214,-86.7799 355.3214,-86.7798"/>
</g>
<!-- p15 -->
<g id="node17" class="node">
<title>p15</title>
<ellipse fill="#000000" stroke="#000000" cx="376.8213" cy="-131.6" rx="3.6" ry="3.6"/>
<text text-anchor="middle" x="424.3493" y="-115.4" font-family="Times,serif" font-size="14.00" fill="#000000">Channel.fromPath</text>
</g>
<!-- p15&#45;&gt;p16 -->
<g id="edge17" class="edge">
<title>p15-&gt;p16</title>
<path fill="none" stroke="#000000" d="M375.6155,-128.0791C373.0308,-120.5317 366.7475,-102.1845 361.2866,-86.2388"/>
<polygon fill="#000000" stroke="#000000" points="364.5844,-85.0653 358.0332,-76.7387 357.9619,-87.3333 364.5844,-85.0653"/>
</g>
</g>
</svg>